<?xml version="1.0" standalone="no"?>
<!DOCTYPE svg PUBLIC "-//W3C//DTD SVG 20010904//EN"
 "http://www.w3.org/TR/2001/REC-SVG-20010904/DTD/svg10.dtd">
<svg xmlns="http://www.w3.org/2000/svg" viewBox="0 0 1574 326">

<g transform="translate(0.000000,326.000000) scale(0.100000,-0.100000)"
fill="#f5f0e5" stroke="none">
<path d="M7018 2936 c-31 -7 -64 -20 -73 -29 -9 -10 -25 -17 -35 -17 -10 0
-21 -4 -24 -9 -3 -5 -26 -14 -51 -20 -25 -6 -45 -16 -45 -21 0 -5 -15 -16 -32
-24 -18 -8 -59 -41 -90 -74 -32 -33 -64 -62 -73 -66 -9 -3 -22 -20 -30 -38 -7
-18 -22 -38 -33 -45 -11 -6 -22 -27 -26 -46 -3 -18 -14 -42 -24 -53 -33 -36
-45 -143 -34 -322 5 -90 14 -167 19 -170 12 -8 46 -84 56 -124 4 -16 11 -28
16 -28 5 0 12 -13 16 -29 9 -41 51 -78 73 -65 17 11 40 152 41 256 1 27 7 53
16 62 8 8 15 27 15 43 0 15 5 46 11 68 6 22 14 53 18 70 6 25 13 31 51 38 71
12 316 -21 332 -46 3 -5 26 -10 50 -11 49 -1 76 18 99 72 8 17 17 32 21 32 4
0 17 18 28 39 11 22 33 49 49 60 16 11 32 33 35 47 10 37 130 156 150 148 9
-3 16 -10 16 -15 0 -4 16 -11 35 -15 19 -3 52 -21 72 -40 28 -26 46 -34 74
-34 21 0 42 6 46 13 15 24 71 57 96 57 13 0 30 -7 37 -15 7 -8 18 -15 26 -15
7 0 18 -9 24 -20 16 -29 74 -27 101 4 27 31 119 60 164 52 20 -4 44 -19 59
-36 13 -17 29 -30 35 -30 13 0 31 -33 31 -56 0 -9 17 -34 38 -55 57 -58 82
-89 82 -100 0 -18 54 -88 73 -95 21 -7 77 4 77 16 0 4 44 16 98 25 120 22 262
25 284 7 9 -7 21 -43 28 -80 6 -37 15 -69 19 -72 10 -6 41 -240 41 -308 0 -74
40 -97 79 -44 12 15 25 32 29 37 5 6 12 24 16 40 9 41 49 139 58 146 5 3 13
52 18 110 21 202 21 244 5 282 -8 20 -15 48 -15 62 0 14 -9 34 -20 45 -11 11
-20 31 -20 45 0 14 -11 37 -24 50 -13 13 -34 42 -47 65 -12 22 -28 40 -35 40
-6 0 -27 17 -46 38 -40 43 -84 76 -116 86 -12 4 -22 11 -22 16 0 4 -8 10 -17
13 -66 22 -128 49 -134 58 -3 6 -26 16 -50 21 -65 15 -337 20 -405 8 -101 -19
-114 -22 -114 -30 0 -4 -19 -13 -42 -20 -81 -24 -128 -43 -128 -50 0 -4 -18
-15 -39 -23 -22 -9 -59 -34 -83 -56 -26 -25 -53 -41 -68 -41 -31 0 -70 26 -70
45 0 8 -11 17 -25 21 -13 3 -29 12 -36 20 -6 8 -20 14 -30 14 -9 0 -24 6 -32
14 -18 19 -72 41 -119 50 -21 4 -43 12 -50 19 -30 29 -96 39 -268 43 -119 2
-193 -1 -232 -10z"/>
<path d="M7832 2568 c-7 -7 -12 -18 -12 -25 0 -7 -12 -19 -27 -27 -16 -8 -41
-29 -57 -46 -24 -26 -31 -29 -45 -18 -9 7 -20 19 -24 26 -4 6 -12 12 -18 12
-11 0 -93 52 -97 63 -8 18 -38 4 -73 -35 -21 -24 -39 -47 -39 -52 0 -4 -11
-17 -25 -28 -14 -11 -25 -25 -25 -33 0 -7 -11 -23 -25 -36 -13 -13 -25 -28
-25 -34 0 -5 -11 -32 -25 -59 -14 -27 -25 -55 -25 -63 0 -7 -4 -13 -9 -13 -9
0 -17 -53 -28 -177 -3 -40 -9 -73 -13 -73 -13 0 -19 52 -13 115 5 57 4 62 -25
92 -43 44 -199 83 -338 83 -24 0 -44 5 -44 10 0 17 -29 11 -49 -9 -25 -25 -29
-48 -41 -213 -7 -106 -6 -165 5 -259 8 -67 18 -125 23 -128 5 -3 15 -24 22
-46 7 -22 16 -44 20 -50 4 -5 10 -22 14 -37 3 -15 12 -33 19 -40 18 -20 47
-78 47 -94 0 -7 9 -19 20 -26 11 -7 20 -19 20 -26 0 -8 23 -36 50 -64 28 -28
50 -57 50 -64 0 -8 11 -20 25 -26 14 -6 25 -16 25 -23 0 -14 42 -55 57 -55 6
0 25 -13 43 -30 18 -16 38 -30 46 -30 7 0 18 -9 24 -20 11 -20 108 -70 135
-70 8 0 15 -3 15 -8 0 -4 18 -18 40 -32 37 -23 53 -50 30 -50 -5 0 -10 5 -10
10 0 6 -9 10 -19 10 -11 0 -22 4 -26 9 -3 5 -28 17 -55 26 -28 9 -50 21 -50
26 0 5 -7 9 -14 9 -16 0 -109 59 -114 72 -2 5 -17 15 -32 23 -16 8 -31 23 -35
34 -3 10 -21 26 -40 35 -21 10 -37 27 -41 41 -3 13 -21 33 -40 44 -19 11 -34
27 -34 36 0 9 -16 31 -35 51 -19 19 -35 43 -35 54 0 10 -13 31 -28 47 -28 28
-82 117 -82 135 0 5 -9 18 -20 30 -11 12 -20 29 -20 38 0 35 -30 59 -90 71
-33 6 -60 16 -60 20 0 5 -40 9 -90 9 -49 0 -90 -4 -90 -8 0 -4 -21 -14 -47
-20 -62 -17 -73 -28 -73 -71 1 -45 26 -152 38 -160 5 -3 17 -30 26 -59 10 -29
31 -67 47 -85 16 -17 29 -37 29 -43 0 -7 32 -44 70 -84 39 -40 70 -75 70 -79
0 -4 16 -22 35 -40 19 -17 35 -35 35 -39 0 -17 95 -102 125 -112 18 -6 35 -17
38 -24 3 -7 27 -23 54 -36 26 -12 50 -25 53 -29 6 -8 214 -71 235 -71 8 0 15
-4 15 -8 0 -10 152 -32 255 -37 44 -2 115 3 159 11 43 8 90 14 104 14 24 0 25
-1 10 -16 -9 -9 -37 -19 -63 -22 -36 -4 -49 -10 -57 -28 -15 -33 -3 -71 27
-78 13 -3 31 -19 39 -34 19 -37 154 -169 209 -204 52 -33 172 38 258 153 13
18 43 53 67 78 62 67 56 94 -26 111 -49 11 -71 25 -58 37 3 3 44 -2 91 -12 62
-12 115 -15 188 -12 134 7 269 24 276 35 7 10 176 62 204 62 10 0 20 6 23 14
3 8 23 21 45 30 21 9 47 24 58 35 10 10 28 22 39 25 21 7 108 92 125 122 6 10
23 29 39 42 15 13 28 28 28 32 0 5 29 38 65 75 36 36 65 71 65 78 0 7 10 23
23 37 25 27 77 126 77 146 0 7 3 14 8 16 15 6 42 107 42 157 0 40 -4 53 -17
57 -44 15 -73 29 -73 36 0 5 -49 8 -110 8 -67 0 -110 -4 -110 -10 0 -5 -14
-10 -30 -10 -51 0 -89 -27 -110 -76 -11 -24 -24 -44 -30 -44 -5 0 -10 -9 -10
-19 0 -11 -4 -22 -9 -26 -5 -3 -12 -18 -16 -34 -3 -16 -18 -42 -33 -58 -15
-15 -32 -37 -38 -48 -24 -45 -40 -69 -61 -93 -13 -14 -23 -30 -23 -37 0 -7
-16 -25 -35 -39 -19 -15 -35 -36 -35 -46 0 -11 -10 -25 -22 -31 -13 -6 -33
-24 -46 -40 -13 -16 -30 -29 -37 -29 -8 0 -21 -11 -30 -23 -8 -13 -41 -37 -73
-53 -31 -16 -65 -37 -74 -46 -10 -10 -22 -18 -28 -18 -16 0 -90 -34 -90 -42 0
-9 -161 -41 -274 -53 -41 -5 -64 -13 -75 -26 -13 -17 -23 -19 -59 -13 -55 9
-55 30 2 55 32 14 56 18 84 13 41 -6 152 12 152 25 0 5 19 11 43 14 49 7 137
44 137 57 0 5 12 13 28 16 34 9 124 53 137 69 5 6 24 20 40 30 32 20 49 35
138 123 72 72 91 94 124 143 14 21 29 39 33 39 10 0 60 98 60 116 0 6 7 14 15
17 8 4 22 32 31 64 9 32 20 62 25 68 5 5 9 22 9 37 0 15 4 28 8 28 5 0 14 44
21 98 17 131 3 392 -20 392 -5 0 -9 12 -9 28 0 15 -7 35 -14 45 -14 18 -66 24
-66 7 0 -5 -21 -10 -47 -11 -52 0 -159 -18 -238 -40 -81 -23 -89 -36 -94 -161
-3 -108 -21 -154 -21 -56 0 67 -22 208 -32 208 -4 0 -8 9 -8 21 0 27 -59 169
-71 169 -5 0 -17 17 -28 38 -11 20 -38 57 -60 82 -23 24 -41 50 -41 56 0 13
-22 24 -48 24 -9 0 -30 -12 -47 -26 -16 -15 -45 -33 -63 -41 -18 -7 -37 -24
-42 -37 -5 -13 -13 -27 -19 -30 -5 -4 -41 25 -79 64 -71 71 -103 85 -130 58z
m56 -176 c2 -31 -1 -42 -11 -42 -14 0 -30 65 -20 83 11 20 28 -3 31 -41z m104
-183 c-3 -146 -9 -199 -23 -199 -11 0 -11 54 -2 219 4 78 10 120 17 118 7 -2
9 -50 8 -138z m-212 10 c0 -38 -4 -69 -9 -69 -10 0 -24 127 -16 141 15 23 25
-7 25 -72z m110 -124 c0 -104 -2 -125 -15 -125 -13 0 -15 21 -15 125 0 104 2
125 15 125 13 0 15 -21 15 -125z m187 64 c-5 -58 -11 -78 -22 -67 -9 9 8 128
18 128 6 0 8 -23 4 -61z m-82 -321 c4 -3 2 -15 -3 -25 -6 -10 -12 -59 -14
-108 l-4 -90 -100 -3 c-106 -2 -142 7 -112 30 14 10 17 25 14 73 -2 33 -7 74
-11 92 -6 26 -4 32 11 36 25 8 211 3 219 -5z m525 -15 c0 -31 -26 -222 -36
-265 -4 -16 -10 -28 -14 -28 -4 0 -10 -15 -14 -32 -6 -33 -55 -138 -67 -148
-4 -3 -20 -32 -35 -65 -16 -33 -37 -68 -47 -78 -9 -9 -20 -31 -24 -48 -3 -16
-14 -35 -24 -43 -10 -7 -31 -37 -47 -67 -29 -56 -62 -77 -62 -40 0 11 6 26 14
34 8 7 27 39 44 69 16 31 38 65 48 76 11 11 28 43 39 71 11 28 23 51 26 51 9
0 39 58 39 75 0 6 9 21 20 33 20 22 80 187 80 222 0 11 4 20 9 20 11 0 17 30
26 123 6 65 25 95 25 40z m-210 -83 c0 -47 -4 -80 -10 -80 -6 0 -10 33 -10 80
0 47 4 80 10 80 6 0 10 -33 10 -80z m-850 -45 c0 -37 -4 -65 -10 -65 -6 0 -10
28 -10 65 0 37 4 65 10 65 6 0 10 -28 10 -65z m-136 -208 c9 -23 16 -48 16
-54 0 -7 6 -16 13 -20 6 -4 25 -34 42 -65 16 -32 33 -58 37 -58 4 0 8 -11 8
-24 0 -23 44 -98 61 -104 5 -2 9 -9 9 -17 0 -7 6 -18 14 -24 16 -13 28 -61 15
-61 -5 0 -14 10 -20 23 -7 12 -20 28 -30 35 -9 6 -20 25 -24 42 -4 16 -11 32
-16 35 -5 4 -9 14 -9 25 0 10 -6 20 -12 23 -7 2 -24 28 -38 56 -14 28 -28 51
-32 51 -16 0 -68 129 -68 168 0 26 18 10 34 -31z m569 -146 c8 -199 -1 -391
-20 -391 -8 0 -13 13 -14 38 0 20 -3 60 -5 87 -2 28 -1 132 2 233 5 134 9 182
19 182 9 0 14 -41 18 -149z m117 19 c0 -27 5 -50 10 -50 6 0 10 -9 10 -20 0
-32 -27 -23 -34 11 -9 48 -7 109 4 109 6 0 10 -22 10 -50z m-270 -145 c0 -33
-4 -45 -15 -45 -11 0 -15 12 -15 45 0 33 4 45 15 45 11 0 15 -12 15 -45z
m-138 -32 c10 -9 18 -26 18 -38 0 -12 8 -30 18 -41 10 -11 23 -34 30 -51 10
-30 9 -32 -8 -21 -20 13 -70 100 -70 123 0 8 -4 15 -10 15 -5 0 -10 7 -10 15
0 19 9 19 32 -2z m246 -383 c2 -16 -55 -60 -78 -60 -11 0 -11 3 -2 12 7 7 12
20 12 30 0 33 62 50 68 18z"/>
<path d="M5385 2500 c-11 -5 -204 -6 -430 -3 -391 5 -411 5 -431 -13 -18 -16
-26 -44 -43 -164 -25 -173 -26 -200 -6 -200 8 0 30 16 49 35 76 76 121 86 301
66 l60 -6 0 -90 c0 -49 2 -347 3 -662 2 -423 0 -578 -9 -595 -6 -13 -25 -37
-42 -55 -26 -28 -28 -34 -17 -48 12 -14 37 -16 191 -13 198 3 228 12 176 50
-54 40 -60 70 -50 298 4 113 7 221 6 240 -4 82 -3 274 2 395 3 72 7 206 10
299 2 93 8 173 13 178 7 7 22 6 44 -2 28 -10 47 -10 105 4 40 9 98 16 130 16
78 0 103 17 103 73 0 67 -20 171 -35 186 -16 17 -100 24 -130 11z"/>
<path d="M1352 2490 c-39 -16 -37 -37 6 -84 36 -39 41 -50 46 -107 10 -118 15
-1368 5 -1403 -5 -18 -20 -50 -34 -70 -13 -19 -21 -37 -17 -40 6 -4 342 -10
376 -7 6 1 -2 13 -16 29 -48 52 -52 68 -56 247 -4 234 -3 496 3 506 3 4 58 8
123 7 260 -1 451 85 591 266 49 63 71 145 71 262 0 61 -5 80 -39 150 -37 76
-112 174 -133 174 -5 0 -22 9 -37 20 -40 28 -166 60 -236 60 -87 0 -158 -23
-236 -74 -38 -26 -73 -46 -79 -46 -5 0 -10 15 -10 34 0 19 -9 44 -19 57 -18
23 -26 24 -153 26 -73 1 -143 -2 -156 -7z m734 -109 c64 -31 97 -125 98 -281
2 -227 -106 -367 -328 -426 -59 -16 -172 -18 -181 -4 -3 5 -6 43 -7 82 0 40
-7 90 -15 111 -21 52 -11 155 29 282 26 86 37 107 77 148 48 50 82 69 166 92
70 19 115 18 161 -4z"/>
<path d="M2878 2489 c-25 -14 -22 -31 7 -59 61 -57 58 -24 61 -750 1 -366 -2
-696 -6 -734 -7 -60 -13 -74 -44 -104 l-35 -35 -36 24 c-77 51 -73 9 -77 809
l-3 715 32 52 c18 29 28 55 24 58 -15 9 -383 7 -392 -2 -5 -5 3 -18 21 -31 16
-12 36 -35 44 -50 13 -25 34 -202 29 -242 -8 -68 -17 -456 -17 -790 -1 -442
-3 -455 -59 -516 -48 -52 -36 -68 58 -75 44 -3 109 -4 145 -3 36 1 195 3 353
3 347 1 369 7 291 82 -64 62 -65 64 -57 309 3 121 9 220 13 220 4 0 11 -21 15
-47 11 -73 59 -206 99 -271 52 -86 143 -173 227 -217 61 -32 93 -41 196 -56
77 -11 139 -15 165 -11 l43 8 0 154 c0 85 -4 163 -8 173 -6 16 -10 15 -46 -11
-22 -16 -61 -35 -86 -42 -67 -19 -179 -9 -248 23 -148 68 -271 260 -279 439
l-3 63 110 16 c112 17 237 50 288 76 68 35 204 175 217 225 6 20 15 40 19 43
5 3 17 38 26 78 17 68 17 77 1 146 -9 40 -25 90 -35 110 -29 55 -99 129 -145
153 -22 11 -52 29 -65 39 -14 11 -40 19 -62 19 -21 0 -41 5 -44 10 -3 6 -32
10 -63 10 -102 0 -205 -39 -289 -107 -24 -19 -44 -33 -44 -31 -1 2 -3 27 -4
56 -5 82 -6 82 -174 82 -80 0 -154 -5 -163 -11z m734 -98 c71 -27 112 -138
113 -302 0 -112 -1 -117 -35 -184 -38 -75 -93 -136 -150 -165 -58 -30 -160
-61 -229 -71 -36 -5 -70 -14 -78 -20 -22 -19 -25 11 -21 248 5 260 14 302 89
386 50 57 96 86 173 109 62 18 90 18 138 -1z"/>
<path d="M4083 2490 c-40 -4 -76 -9 -80 -13 -3 -4 14 -27 39 -51 25 -24 50
-59 56 -77 7 -23 10 -275 9 -751 l-2 -717 -39 -40 c-26 -26 -37 -45 -32 -56 5
-14 28 -16 195 -13 104 2 193 6 197 11 4 4 -6 22 -23 40 -62 65 -62 70 -45
387 5 80 5 177 2 215 -4 39 -3 160 2 270 5 110 11 295 12 410 2 116 7 226 11
245 4 19 23 52 43 72 40 42 38 68 -5 68 -15 1 -82 2 -148 3 -66 1 -153 0 -192
-3z"/>
<path d="M635 2467 c-92 -31 -184 -89 -207 -131 -7 -13 -27 -47 -44 -75 -46
-77 -63 -204 -40 -297 9 -37 23 -79 31 -93 15 -29 131 -146 162 -164 11 -7 54
-39 95 -72 42 -33 144 -109 227 -170 84 -60 182 -135 220 -166 60 -50 68 -62
79 -109 19 -83 14 -120 -27 -190 -5 -8 -14 -28 -20 -43 -27 -68 -248 -124
-393 -99 -77 13 -114 30 -173 76 -21 17 -48 36 -59 41 -11 6 -37 36 -59 68
-22 32 -51 65 -64 74 -41 27 -48 8 -51 -163 -3 -130 -1 -159 12 -179 l16 -25
273 0 c300 1 342 6 472 60 100 42 175 113 225 215 34 68 35 73 35 190 0 113
-2 123 -30 179 -56 111 -107 155 -495 426 -248 174 -280 211 -280 328 0 76 19
125 68 175 47 49 73 62 147 77 142 28 286 -24 418 -149 42 -41 80 -71 83 -68
10 9 -27 261 -40 275 -19 19 -527 27 -581 9z"/>
<path d="M13695 2394 c-91 -20 -236 -78 -302 -121 -67 -44 -181 -165 -220
-234 -78 -138 -107 -253 -107 -434 -1 -111 3 -141 23 -204 39 -120 144 -279
237 -357 62 -52 151 -109 207 -133 148 -63 378 -67 537 -9 30 11 69 24 87 30
48 16 163 107 199 158 57 79 43 80 -52 4 -123 -99 -210 -131 -379 -140 -105
-6 -115 -5 -201 24 -50 17 -109 43 -130 57 -68 46 -181 153 -197 187 -9 18
-25 47 -37 63 -11 17 -27 55 -36 85 -8 30 -20 72 -26 92 -7 23 -9 92 -5 185 5
127 9 158 32 218 55 147 85 197 174 285 109 109 179 145 299 155 75 7 87 5
135 -18 28 -14 61 -28 73 -31 31 -9 79 -66 102 -122 30 -72 37 -166 22 -290
-16 -129 -7 -147 40 -83 18 24 42 64 53 89 11 25 34 68 51 95 73 114 98 161
103 190 4 28 -1 36 -49 76 -106 89 -181 132 -297 166 -108 32 -237 39 -336 17z"/>
<path d="M10210 2380 c-13 -25 0 -47 38 -61 51 -19 51 -27 46 -690 -3 -348
-10 -627 -15 -645 -5 -17 -21 -42 -34 -54 -28 -26 -32 -52 -11 -69 16 -13 178
-14 446 -1 171 8 179 10 269 46 174 69 252 172 255 334 1 66 -3 83 -32 142
-56 116 -184 211 -301 225 -28 3 -51 9 -51 13 0 4 18 12 40 19 110 33 255 152
304 250 55 108 44 224 -29 327 -25 35 -50 64 -54 64 -5 0 -26 14 -47 31 -22
17 -64 42 -94 56 -46 20 -66 24 -125 20 -117 -8 -206 -38 -249 -86 -25 -27
-36 -18 -36 28 0 61 -15 67 -172 70 -130 2 -137 1 -148 -19z m682 -101 c34
-25 58 -68 58 -107 0 -15 5 -33 11 -39 16 -16 6 -174 -15 -240 -36 -115 -163
-206 -315 -226 -103 -13 -108 -10 -116 96 -13 171 -10 227 20 322 40 129 90
177 223 210 65 16 94 12 134 -16z m-272 -706 c69 -10 206 -69 257 -111 56 -46
82 -102 90 -197 7 -82 -4 -125 -48 -190 -35 -52 -82 -81 -169 -106 -76 -22
-208 -26 -215 -6 -6 17 -27 281 -28 352 -1 63 12 240 19 264 3 8 12 11 27 7
12 -3 42 -9 67 -13z"/>
<path d="M11182 2388 c-19 -19 -14 -36 17 -59 41 -30 50 -58 60 -176 7 -74 16
-117 35 -158 31 -67 126 -167 179 -186 20 -7 37 -16 37 -20 0 -4 -29 -28 -64
-54 -76 -55 -140 -138 -162 -209 -25 -79 -30 -221 -9 -292 49 -169 148 -272
322 -336 51 -19 85 -22 301 -26 182 -3 246 -1 257 8 24 20 17 280 -7 280 -6 0
-28 -16 -50 -35 -55 -46 -120 -59 -273 -52 -204 8 -324 67 -388 190 -29 56
-32 70 -32 152 0 50 6 109 13 132 15 51 79 133 132 172 77 56 236 72 315 33
17 -8 51 -37 77 -65 73 -78 78 -69 78 122 0 88 -3 166 -6 175 -10 26 -31 18
-61 -21 -63 -85 -116 -107 -236 -101 -72 4 -89 8 -128 35 -24 17 -50 41 -57
54 -20 40 -36 149 -36 254 l-1 100 160 3 c163 3 200 -2 282 -39 43 -20 65 -42
116 -124 18 -27 40 -51 51 -53 17 -4 18 3 11 135 -5 102 -11 143 -23 156 -14
16 -49 17 -457 17 -330 0 -444 -3 -453 -12z"/>
<path d="M12545 2368 c-20 -17 -60 -63 -88 -102 -29 -39 -62 -84 -75 -101 -12
-16 -33 -50 -47 -75 -14 -25 -34 -58 -45 -75 -10 -16 -19 -40 -19 -53 -1 -12
-12 -48 -25 -80 -13 -31 -34 -97 -47 -147 -46 -183 -24 -527 46 -742 46 -139
53 -143 233 -143 176 0 188 15 99 128 -80 101 -153 233 -184 332 -36 115 -43
144 -45 200 l-3 55 193 3 c226 3 196 27 242 -188 17 -80 43 -192 57 -250 32
-126 31 -163 -2 -202 -14 -17 -24 -36 -22 -42 4 -12 350 -16 362 -4 4 3 -11
24 -32 45 -51 51 -65 94 -102 308 -17 99 -40 223 -51 275 -10 52 -22 113 -26
135 -4 22 -10 45 -14 50 -4 6 -13 37 -20 70 -7 33 -16 65 -20 70 -6 9 -20 81
-41 210 -4 28 -14 79 -23 115 -9 36 -20 96 -26 134 -15 100 -23 106 -141 106
-96 0 -99 -1 -134 -32z m59 -85 c4 -9 11 -64 17 -122 5 -58 15 -111 20 -118 6
-7 17 -63 25 -125 9 -62 21 -142 28 -178 8 -36 12 -69 9 -73 -7 -12 -343 -1
-356 12 -15 15 21 205 58 301 50 131 158 316 186 319 4 1 10 -7 13 -16z"/>
<path d="M14400 2393 c-84 -13 -88 -21 -29 -58 23 -15 46 -40 53 -58 10 -25
14 -172 15 -655 l2 -623 -40 -50 c-34 -43 -39 -54 -30 -71 11 -20 18 -20 193
-15 178 5 226 11 226 28 0 4 -18 20 -39 36 -71 51 -71 49 -71 356 0 152 3 278
8 280 4 3 104 6 222 8 l215 3 3 -300 2 -301 -24 -36 c-13 -19 -22 -38 -18 -41
7 -8 322 -8 322 0 0 3 -13 19 -29 35 -20 19 -32 44 -36 72 -4 23 -2 188 3 367
5 180 6 390 1 470 -9 169 2 404 21 440 7 14 24 38 39 53 26 28 26 29 6 44 -15
11 -35 13 -83 9 -34 -3 -73 -2 -85 3 -26 9 -203 -1 -214 -13 -4 -4 12 -25 37
-46 l45 -38 5 -269 c3 -147 3 -288 0 -312 l-5 -43 -215 -2 -215 -1 0 301 0
302 38 41 c44 49 44 73 2 82 -32 7 -284 9 -325 2z"/>
</g>
</svg>
