<?xml version="1.0" standalone="no"?>
<!DOCTYPE svg PUBLIC "-//W3C//DTD SVG 20010904//EN"
 "http://www.w3.org/TR/2001/REC-SVG-20010904/DTD/svg10.dtd">
<svg xmlns="http://www.w3.org/2000/svg" viewBox="0 0 276 228">

<g transform="translate(0.000000,228.000000) scale(0.100000,-0.100000)"
fill="#405324" stroke="none">
<path d="M640 2266 c-42 -12 -70 -24 -190 -79 -46 -22 -181 -140 -212 -186
-84 -125 -101 -192 -92 -371 6 -127 8 -140 44 -220 20 -47 40 -94 44 -106 3
-11 17 -31 31 -44 39 -37 50 -16 64 117 7 65 17 128 22 141 5 13 9 35 10 50 0
15 8 52 18 82 16 49 22 55 52 62 48 11 138 1 251 -28 90 -24 98 -24 127 -9 17
8 31 20 31 25 0 16 50 90 92 137 21 24 38 48 38 54 0 6 25 36 54 66 l55 54 30
-15 c16 -9 35 -16 42 -16 6 0 27 -13 46 -30 44 -39 86 -39 133 0 43 38 63 38
110 0 44 -35 77 -38 113 -10 34 27 90 50 120 50 32 0 116 -68 124 -100 3 -14
26 -47 50 -74 24 -26 50 -63 59 -81 23 -49 59 -79 86 -72 13 3 59 15 103 26
44 10 114 22 155 25 105 9 120 0 142 -89 17 -70 45 -255 50 -329 2 -25 10 -43
21 -50 16 -9 23 -5 48 24 16 19 29 40 29 48 0 7 14 45 31 84 21 47 33 97 40
156 20 184 20 211 4 242 -8 16 -15 38 -15 49 0 11 -6 32 -14 48 -8 15 -19 39
-25 53 -38 86 -163 197 -291 257 -135 64 -147 67 -325 67 -154 0 -163 -1 -252
-32 -119 -41 -204 -84 -252 -127 -46 -42 -73 -44 -109 -7 -42 43 -105 75 -252
130 -91 33 -102 35 -245 38 -103 2 -164 -1 -195 -10z"/>
<path d="M1296 1900 l-59 -59 -72 49 c-39 28 -78 50 -87 50 -20 0 -128 -138
-173 -222 -37 -69 -50 -121 -62 -235 -3 -35 -9 -63 -13 -63 -13 0 -19 41 -13
91 7 56 -12 94 -55 110 -89 34 -316 67 -338 48 -30 -25 -48 -266 -30 -403 15
-111 28 -148 95 -279 64 -124 64 -124 110 -171 23 -23 41 -45 41 -49 0 -10 83
-97 93 -97 5 0 41 -24 80 -54 40 -29 92 -61 117 -70 45 -17 107 -63 97 -72 -3
-3 -39 11 -80 30 -41 20 -78 36 -81 36 -9 0 -126 88 -152 113 -12 12 -32 32
-45 44 -58 54 -149 167 -149 186 0 8 -7 21 -16 28 -21 17 -73 100 -107 171
-15 32 -35 61 -45 66 -74 37 -238 41 -307 7 -47 -24 -55 -55 -32 -132 43 -142
80 -200 253 -395 81 -91 117 -123 180 -160 195 -115 491 -178 667 -142 38 8
78 14 90 14 l22 -1 -24 -19 c-13 -11 -35 -20 -50 -20 -57 0 -71 -59 -21 -85
17 -9 30 -20 30 -24 0 -16 51 -71 122 -132 49 -42 77 -59 97 -59 35 0 136 72
177 126 16 20 46 56 67 79 20 23 37 49 37 58 0 18 -29 37 -57 37 -23 0 -61 26
-51 35 3 4 40 -1 82 -10 182 -41 477 17 666 130 68 41 104 72 183 160 110 124
162 189 200 255 38 66 77 181 77 228 0 40 -2 42 -47 63 -43 19 -60 21 -161 17
-139 -7 -149 -13 -206 -124 -45 -88 -171 -278 -205 -308 -11 -11 -21 -24 -21
-30 0 -14 -119 -113 -190 -158 -30 -19 -85 -49 -122 -66 -65 -30 -101 -39
-253 -63 -38 -6 -77 -17 -85 -25 -17 -14 -90 -9 -90 7 0 5 18 18 40 29 29 15
50 19 77 14 58 -9 192 31 313 92 238 121 390 289 516 569 27 60 46 215 40 325
-7 117 -23 208 -41 228 -14 15 -157 2 -245 -24 -30 -8 -67 -18 -82 -21 -43 -8
-52 -28 -56 -129 -4 -96 -22 -133 -22 -46 0 57 -32 214 -53 262 -36 81 -163
250 -188 250 -22 0 -118 -65 -144 -96 l-20 -25 -60 61 c-35 36 -68 60 -80 59
-11 0 -47 -27 -79 -59z m185 -266 c-2 -126 -8 -164 -22 -164 -11 0 -11 40 -2
184 9 149 27 135 24 -20z m-181 15 c0 -32 -4 -59 -9 -59 -10 0 -24 107 -15
121 13 22 24 -6 24 -62z m90 -109 c0 -67 -4 -110 -10 -110 -6 0 -10 43 -10
110 0 67 4 110 10 110 6 0 10 -43 10 -110z m96 -223 c4 -4 2 -12 -4 -19 -6 -7
-12 -49 -14 -93 l-4 -80 -84 -3 c-93 -2 -127 8 -98 30 18 14 20 82 4 140 -6
21 -4 27 11 32 24 7 181 1 189 -7z m454 -14 c-1 -47 -27 -195 -45 -253 -9 -30
-29 -77 -45 -105 -167 -300 -201 -355 -221 -355 -19 0 -7 29 46 113 144 230
224 420 240 570 6 57 25 81 25 30z m-180 -68 c0 -37 -4 -65 -10 -65 -6 0 -10
28 -10 65 0 37 4 65 10 65 6 0 10 -28 10 -65z m-859 -212 c20 -53 43 -98 71
-140 15 -23 28 -49 28 -58 0 -9 19 -44 43 -78 46 -67 61 -97 48 -97 -12 0 -55
59 -76 105 -11 22 -30 58 -44 80 -46 73 -50 80 -70 120 -27 55 -36 95 -22 95
6 0 16 -12 22 -27z m492 -131 c7 -143 -2 -342 -15 -342 -4 0 -8 15 -9 33 -1
17 -3 50 -5 72 -6 62 7 365 16 365 4 0 10 -57 13 -128z m-233 -172 c0 -9 4
-20 9 -25 12 -12 43 -85 36 -85 -10 0 -74 106 -81 135 l-7 30 22 -19 c11 -11
21 -27 21 -36z m195 -290 c7 -11 -43 -59 -62 -60 -12 0 -5 18 20 58 10 14 33
16 42 2z"/>
</g>
</svg>
